<svg width="22" height="22" viewBox="0 0 22 22" fill="none" xmlns="http://www.w3.org/2000/svg">
<path d="M10.9206 21.3333C5.16077 21.3333 0.503906 16.6765 0.503906 10.9167C0.503906 5.15686 5.16077 0.5 10.9206 0.5C16.6804 0.5 21.3372 5.15686 21.3372 10.9167C21.3372 16.6765 16.6804 21.3333 10.9206 21.3333ZM10.9206 1.72549C5.83479 1.72549 1.7294 5.83088 1.7294 10.9167C1.7294 16.0025 5.83479 20.1078 10.9206 20.1078C16.0064 20.1078 20.1117 16.0025 20.1117 10.9167C20.1117 5.83088 16.0064 1.72549 10.9206 1.72549Z" fill="#393246"/>
<path d="M13.1836 15.9967L9.43359 12.2467V5.46094H10.6241V11.7705L14.0169 15.1633L13.1836 15.9967Z" fill="#393246"/>
</svg>
